<svg width="32" height="32" viewBox="0 0 32 32" fill="none" xmlns="http://www.w3.org/2000/svg">
<g id="Frame">
<path id="Vector" d="M19.8095 22.776C22.2938 22.4819 24.7346 21.8956 27.0815 21.0293C25.094 18.8277 23.9958 15.966 24.0001 13V12.0667V12C24.0001 9.87827 23.1573 7.84344 21.657 6.34315C20.1567 4.84286 18.1219 4 16.0001 4C13.8784 4 11.8436 4.84286 10.3433 6.34315C8.843 7.84344 8.00015 9.87827 8.00015 12V13C8.00417 15.9662 6.90546 18.8279 4.91748 21.0293C7.22815 21.8827 9.66415 22.476 12.1908 22.776M19.8095 22.776C17.2788 23.0762 14.7215 23.0762 12.1908 22.776M19.8095 22.776C20.0016 23.3758 20.0494 24.0125 19.9489 24.6343C19.8485 25.2561 19.6026 25.8453 19.2313 26.3541C18.8601 26.8629 18.3739 27.2768 17.8124 27.5621C17.2509 27.8475 16.63 27.9962 16.0001 27.9962C15.3703 27.9962 14.7494 27.8475 14.1879 27.5621C13.6264 27.2768 13.1402 26.8629 12.769 26.3541C12.3977 25.8453 12.1518 25.2561 12.0514 24.6343C11.9509 24.0125 11.9987 23.3758 12.1908 22.776" stroke="black" stroke-width="2" stroke-linecap="round" stroke-linejoin="round"/>
</g>
</svg>
