<svg width="1438" height="232" viewBox="0 0 1438 232" fill="none" xmlns="http://www.w3.org/2000/svg">
<path d="M1448 264H0C0 264 17.0756 156.999 68 152C110.29 147.849 116.093 201.4 156 216C231.522 243.631 277.966 183.849 358 176C438.064 168.148 494.717 223.011 560 176C604.893 143.672 557.379 65.27 600 30C669.575 -27.5749 776.939 15.0418 866 30C910.342 37.4474 931.571 57.0939 976 64C1040.94 74.0949 1083.23 28.959 1144 54C1195.07 75.0463 1192.81 137.099 1246 152C1336.11 177.243 1348.52 -27.216 1436 5.99999C1530.3 41.803 1448 264 1448 264Z" fill="#121213"/>
</svg>
