<svg width="48" height="48" viewBox="0 0 48 48" fill="none" xmlns="http://www.w3.org/2000/svg">
<circle cx="24" cy="24" r="24" fill="#B9B2DC"/>
<path d="M23.0492 29.1967L32.614 38.7615C33.4343 39.5555 34.5338 39.9954 35.6755 39.9861C36.8172 39.9768 37.9094 39.5192 38.7167 38.7119C39.524 37.9046 39.9817 36.8123 39.9909 35.6707C40.0002 34.529 39.5604 33.4295 38.7663 32.6092L29.1244 22.9673M23.0492 29.1967L27.1442 24.2256C27.6643 23.5956 28.3582 23.1986 29.126 22.9689C30.0284 22.6999 31.0341 22.6605 31.9856 22.7393C33.2683 22.8494 34.5575 22.6222 35.7252 22.0802C36.893 21.5383 37.8987 20.7004 38.6427 19.6497C39.3866 18.599 39.8428 17.372 39.9661 16.0905C40.0893 14.809 39.8754 13.5176 39.3454 12.3443L33.9708 17.7206C33.0716 17.5127 32.2488 17.0564 31.5962 16.4038C30.9436 15.7512 30.4873 14.9285 30.2794 14.0292L35.654 8.6546C34.4808 8.12463 33.1893 7.91066 31.9079 8.03393C30.6264 8.15721 29.3994 8.61344 28.3487 9.35736C27.298 10.1013 26.4601 11.107 25.9181 12.2748C25.3762 13.4425 25.149 14.7317 25.2591 16.0144C25.4084 17.7797 25.1426 19.7287 23.776 20.8542L23.6087 20.9936M23.0492 29.1967L15.4122 38.4711C15.042 38.9222 14.5815 39.2909 14.0603 39.5534C13.5391 39.8158 12.9687 39.9663 12.3858 39.9949C11.8029 40.0236 11.2205 39.93 10.676 39.72C10.1315 39.51 9.63703 39.1883 9.22438 38.7756C8.81172 38.363 8.49004 37.8685 8.28004 37.324C8.07004 36.7795 7.97637 36.1971 8.00505 35.6142C8.03374 35.0313 8.18416 34.4609 8.44661 33.9397C8.70907 33.4185 9.07775 32.958 9.52893 32.5878L20.7458 23.3512L14.0078 16.6132H11.6962L8.0048 10.4609L10.4657 8L16.618 11.6914V14.003L23.607 20.992L20.7442 23.3496M34.4597 34.4549L30.1531 30.1482M12.2983 35.6853H12.3114V35.6984H12.2983V35.6853Z" stroke="#0C0C0C" stroke-width="1.5" stroke-linecap="round" stroke-linejoin="round"/>
</svg>
