<svg width="350" height="44" viewBox="0 0 350 44" fill="none" xmlns="http://www.w3.org/2000/svg">
<path d="M18.1081 43.6348C12.4794 43.6348 8.18373 42.5979 5.22124 40.5242C2.25874 38.4505 0.777497 35.5726 0.777497 31.8906V31.6367H12.7121V32.2715C12.7121 33.1603 13.0718 33.7105 13.7913 33.9221C14.5531 34.1337 16.0132 34.2395 18.1716 34.2395C20.2453 34.2395 21.5573 34.1337 22.1075 33.9221C22.6576 33.6681 22.9327 33.2661 22.9327 32.7159C22.9327 32.2081 22.7211 31.8695 22.2979 31.7002C21.8747 31.4886 20.9225 31.2981 19.4412 31.1289L10.1728 30.1131C6.87177 29.7746 4.35365 28.8435 2.61848 27.3199C0.8833 25.754 0.0157125 23.6168 0.0157125 20.9083C0.0157125 19.0038 0.544729 17.2686 1.60276 15.7027C2.70312 14.0945 4.45945 12.8037 6.87177 11.8303C9.32641 10.8569 12.5428 10.3702 16.521 10.3702C20.2453 10.3702 23.3559 10.8146 25.8529 11.7034C28.3922 12.5921 30.2966 13.9252 31.5663 15.7027C32.8782 17.4379 33.5342 19.6175 33.5342 22.2414V22.4953H21.5996V22.1144C21.5996 21.5642 21.4726 21.1199 21.2187 20.7813C21.0071 20.4004 20.4992 20.1253 19.6951 19.956C18.9334 19.7867 17.7484 19.7021 16.1401 19.7021C14.1934 19.7021 12.966 19.8502 12.4582 20.1465C11.9927 20.4004 11.7599 20.8236 11.7599 21.4161C11.7599 21.8393 11.9927 22.1779 12.4582 22.4318C12.966 22.6858 14.151 22.9185 16.0132 23.1301L22.3614 23.8284C27.0167 24.3363 30.2332 25.3732 32.0107 26.939C33.7882 28.5049 34.6769 30.6422 34.6769 33.3507C34.6769 35.3398 34.0209 37.1173 32.709 38.6832C31.4393 40.2068 29.5772 41.4129 27.1225 42.3017C24.6679 43.1904 21.6631 43.6348 18.1081 43.6348ZM97.597 43H85.6624V26.8756C85.6624 24.6325 85.2392 23.109 84.3927 22.3049C83.5886 21.4584 81.9381 21.0352 79.4412 21.0352C76.9865 21.0352 75.3783 21.4373 74.6165 22.2414C73.8971 23.0032 73.5373 24.4209 73.5373 26.4947H72.3312L71.3155 20.7178H73.4738C73.7278 18.9403 74.2568 17.2686 75.0609 15.7027C75.9073 14.1368 77.177 12.8672 78.8698 11.8938C80.5627 10.8781 82.7845 10.3702 85.5354 10.3702C88.2863 10.3702 90.5505 10.8993 92.328 11.9573C94.1055 13.0153 95.4175 14.4542 96.2639 16.2741C97.1526 18.0939 97.597 20.1676 97.597 22.4953V43ZM49.4776 43H37.543V11.0051H48.7158V20.8448L49.4776 21.1622V43ZM73.5373 43H61.6027V26.8756C61.6027 24.6325 61.1795 23.109 60.3331 22.3049C59.529 21.4584 57.8784 21.0352 55.3815 21.0352C52.9268 21.0352 51.3186 21.4373 50.5568 22.2414C49.8374 23.0032 49.4776 24.4209 49.4776 26.4947H48.2715L47.2558 20.7178H49.3507C49.6046 18.9403 50.1336 17.2686 50.9377 15.7027C51.7418 14.1368 52.948 12.8672 54.5562 11.8938C56.2067 10.8781 58.3651 10.3702 61.0314 10.3702C63.8246 10.3702 66.0888 10.9204 67.8239 12.0208C69.5591 13.1211 70.8288 14.6024 71.6329 16.4645C72.4793 18.2843 72.9025 20.2946 72.9025 22.4953H73.5373V43ZM135.366 43H124.193V35.89H123.558V24.5267C123.558 22.9185 123.135 21.9028 122.289 21.4796C121.484 21.0141 120.024 20.7813 117.908 20.7813C115.962 20.7813 114.607 21.0141 113.845 21.4796C113.126 21.9451 112.766 22.855 112.766 24.2093V24.4632H100.832V24.3363C100.832 21.5008 101.572 19.0461 103.053 16.9724C104.535 14.8563 106.63 13.2269 109.338 12.0843C112.047 10.9416 115.2 10.3702 118.797 10.3702C122.521 10.3702 125.611 10.9627 128.065 12.1477C130.52 13.2904 132.34 14.9409 133.525 17.0993C134.752 19.2154 135.366 21.7758 135.366 24.7807V43ZM111.497 43.6348C107.899 43.6348 105.106 42.8519 103.117 41.286C101.17 39.7201 100.197 37.5829 100.197 34.8743C100.197 33.3507 100.557 31.9964 101.276 30.8115C101.995 29.6265 103.117 28.6742 104.641 27.9548C106.164 27.193 108.132 26.6851 110.544 26.4312L124.193 25.0981V31.7002L113.718 32.9064C113.168 32.9487 112.766 33.0756 112.512 33.2872C112.301 33.4989 112.195 33.7739 112.195 34.1125C112.195 34.6204 112.428 34.9589 112.893 35.1282C113.401 35.2552 114.121 35.3187 115.052 35.3187C117.168 35.3187 118.839 35.2129 120.067 35.0013C121.294 34.7473 122.183 34.303 122.733 33.6681C123.283 33.0333 123.558 32.1234 123.558 30.9384L124.447 30.6845V36.2709H123.558C122.966 38.5139 121.675 40.3126 119.686 41.6669C117.697 42.9788 114.967 43.6348 111.497 43.6348ZM150.838 43H138.903V11.0051H150.076V20.1465L150.838 20.4639V43ZM150.838 23.8919H148.616V19.3847H150.711C151.007 17.6072 151.579 16.0413 152.425 14.687C153.272 13.3327 154.414 12.2747 155.853 11.5129C157.334 10.7511 159.133 10.3702 161.249 10.3702C163.619 10.3702 165.524 10.8569 166.963 11.8303C168.401 12.7614 169.438 14.0522 170.073 15.7027C170.75 17.3533 171.089 19.2577 171.089 21.4161V27.7643H159.154V24.0189C159.154 22.6646 158.858 21.7335 158.265 21.2257C157.673 20.6755 156.594 20.4004 155.028 20.4004C153.42 20.4004 152.319 20.6755 151.727 21.2257C151.134 21.7335 150.838 22.6223 150.838 23.8919ZM197.553 43H189.173C185.195 43 182.063 42.0054 179.778 40.0163C177.535 38.0272 176.413 34.9589 176.413 30.8115V5.48212H188.348V29.0974C188.348 30.3671 188.581 31.2135 189.046 31.6367C189.554 32.0599 190.485 32.2715 191.84 32.2715H197.553V43ZM197.553 20.7813H171.716V11.0051H197.553V20.7813ZM212.336 43H200.402V0.467042H212.336V43ZM250.365 43H239.192V35.89H238.557V24.5267C238.557 22.9185 238.134 21.9028 237.288 21.4796C236.484 21.0141 235.024 20.7813 232.907 20.7813C230.961 20.7813 229.606 21.0141 228.845 21.4796C228.125 21.9451 227.765 22.855 227.765 24.2093V24.4632H215.831V24.3363C215.831 21.5008 216.571 19.0461 218.053 16.9724C219.534 14.8563 221.629 13.2269 224.337 12.0843C227.046 10.9416 230.199 10.3702 233.796 10.3702C237.52 10.3702 240.61 10.9627 243.065 12.1477C245.519 13.2904 247.339 14.9409 248.524 17.0993C249.751 19.2154 250.365 21.7758 250.365 24.7807V43ZM226.496 43.6348C222.898 43.6348 220.105 42.8519 218.116 41.286C216.169 39.7201 215.196 37.5829 215.196 34.8743C215.196 33.3507 215.556 31.9964 216.275 30.8115C216.995 29.6265 218.116 28.6742 219.64 27.9548C221.163 27.193 223.131 26.6851 225.544 26.4312L239.192 25.0981V31.7002L228.718 32.9064C228.167 32.9487 227.765 33.0756 227.511 33.2872C227.3 33.4989 227.194 33.7739 227.194 34.1125C227.194 34.6204 227.427 34.9589 227.892 35.1282C228.4 35.2552 229.12 35.3187 230.051 35.3187C232.167 35.3187 233.839 35.2129 235.066 35.0013C236.293 34.7473 237.182 34.303 237.732 33.6681C238.282 33.0333 238.557 32.1234 238.557 30.9384L239.446 30.6845V36.2709H238.557C237.965 38.5139 236.674 40.3126 234.685 41.6669C232.696 42.9788 229.966 43.6348 226.496 43.6348ZM291.167 43H279.232V26.8756C279.232 24.6325 278.745 23.109 277.772 22.3049C276.798 21.4584 275 21.0352 272.376 21.0352C269.752 21.0352 267.996 21.4373 267.107 22.2414C266.26 23.0032 265.837 24.4209 265.837 26.4947H264.631L263.615 20.7178H265.71C265.964 18.9403 266.536 17.2686 267.424 15.7027C268.355 14.1368 269.71 12.8672 271.487 11.8938C273.307 10.8781 275.635 10.3702 278.47 10.3702C281.348 10.3702 283.718 10.8993 285.58 11.9573C287.485 13.0153 288.881 14.4542 289.77 16.2741C290.701 18.0939 291.167 20.1676 291.167 22.4953V43ZM265.837 43H253.903V11.0051H265.075V20.8448L265.837 21.1622V43ZM312.533 43.6348C308.936 43.6348 305.741 43.0846 302.947 41.9843C300.154 40.8839 297.975 39.1064 296.409 36.6518C294.843 34.1972 294.06 30.9807 294.06 27.0025C294.06 23.5322 294.843 20.5697 296.409 18.115C297.975 15.6181 300.112 13.7136 302.821 12.4017C305.571 11.0474 308.724 10.3702 312.279 10.3702C315.961 10.3702 319.157 10.9839 321.865 12.2112C324.574 13.3962 326.669 15.1737 328.15 17.5437C329.631 19.8714 330.372 22.7492 330.372 26.1773C330.372 26.7274 330.351 27.2353 330.308 27.7008C330.308 28.124 330.266 28.6319 330.181 29.2244H301.868V23.1936H321.548L318.945 26.939C318.945 26.5582 318.945 26.1984 318.945 25.8599C318.945 25.479 318.945 25.0981 318.945 24.7172C318.945 22.7704 318.437 21.4161 317.421 20.6543C316.448 19.8925 314.649 19.5117 312.025 19.5117C309.317 19.5117 307.476 19.9349 306.502 20.7813C305.571 21.6277 305.106 23.1513 305.106 25.352V28.3991C305.106 30.6422 305.593 32.1657 306.566 32.9698C307.539 33.7739 309.38 34.176 312.089 34.176C314.501 34.176 316.109 33.9644 316.914 33.5412C317.76 33.0756 318.183 32.3773 318.183 31.4463V30.748H330.118V31.5098C330.118 33.8797 329.398 35.9747 327.959 37.7945C326.52 39.6143 324.489 41.0532 321.865 42.1113C319.241 43.127 316.131 43.6348 312.533 43.6348ZM349.055 43H333.565V30.8115H349.055V43Z" fill="white"/>
</svg>
