<svg width="32" height="32" viewBox="0 0 32 32" fill="none" xmlns="http://www.w3.org/2000/svg">
<g id="Frame">
<path id="Vector" d="M19.8093 22.776C22.2936 22.4819 24.7344 21.8956 27.0813 21.0293C25.0938 18.8277 23.9956 15.966 23.9999 13V12.0667V12C23.9999 9.87827 23.1571 7.84344 21.6568 6.34315C20.1565 4.84286 18.1217 4 15.9999 4C13.8782 4 11.8434 4.84286 10.3431 6.34315C8.8428 7.84344 7.99995 9.87827 7.99995 12V13C8.00397 15.9662 6.90527 18.8279 4.91728 21.0293C7.22795 21.8827 9.66395 22.476 12.1906 22.776M19.8093 22.776C17.2786 23.0762 14.7213 23.0762 12.1906 22.776M19.8093 22.776C20.0014 23.3758 20.0492 24.0125 19.9487 24.6343C19.8483 25.2561 19.6024 25.8453 19.2311 26.3541C18.8599 26.8629 18.3737 27.2768 17.8122 27.5621C17.2507 27.8475 16.6298 27.9962 15.9999 27.9962C15.3701 27.9962 14.7492 27.8475 14.1877 27.5621C13.6262 27.2768 13.14 26.8629 12.7688 26.3541C12.3975 25.8453 12.1516 25.2561 12.0512 24.6343C11.9507 24.0125 11.9985 23.3758 12.1906 22.776M4.16528 10C4.54124 7.76663 5.54368 5.68592 7.05595 4M24.944 4C26.4562 5.68592 27.4587 7.76663 27.8346 10" stroke="black" stroke-width="2" stroke-linecap="round" stroke-linejoin="round"/>
</g>
</svg>
