<svg width="34" height="34" viewBox="0 0 34 34" fill="none" xmlns="http://www.w3.org/2000/svg">
<path d="M33 20.6923V16.3846C33 14.9157 32.2414 13.507 30.8912 12.4683C29.5409 11.4297 27.7096 10.8462 25.8 10.8462H22.6C21.9635 10.8462 21.353 10.6516 20.9029 10.3054C20.4529 9.95921 20.2 9.48963 20.2 9V6.53846C20.2 5.06957 19.4414 3.66084 18.0912 2.62218C16.7409 1.58351 14.9096 1 13 1H9M23.4 20.6923L17 15.7692M17 15.7692L10.6 20.6923M17 15.7692V25.6154M13.8 1H3.4C2.0752 1 1 1.82708 1 2.84615V31.1538C1 32.1729 2.0752 33 3.4 33H30.6C31.9248 33 33 32.1729 33 31.1538V15.7692C33 11.8522 30.9771 8.09558 27.3764 5.32581C23.7758 2.55604 18.8922 1 13.8 1Z" stroke="white" stroke-width="1.5" stroke-linecap="round" stroke-linejoin="round"/>
</svg>
