<svg width="34" height="34" viewBox="0 0 34 34" fill="none" xmlns="http://www.w3.org/2000/svg">
<path d="M21.9231 10.6H28.0769M21.9231 17H28.0769M21.9231 23.4H28.0769M4.69231 33H29.3077C30.287 33 31.2261 32.4943 31.9185 31.5941C32.611 30.6939 33 29.473 33 28.2V5.8C33 4.52696 32.611 3.30606 31.9185 2.40589C31.2261 1.50571 30.287 1 29.3077 1H4.69231C3.71305 1 2.77389 1.50571 2.08145 2.40589C1.38901 3.30606 1 4.52696 1 5.8V28.2C1 29.473 1.38901 30.6939 2.08145 31.5941C2.77389 32.4943 3.71305 33 4.69231 33ZM14.5385 11.4C14.5385 11.9253 14.4589 12.4454 14.3042 12.9307C14.1496 13.416 13.923 13.857 13.6373 14.2284C13.3515 14.5999 13.0123 14.8945 12.639 15.0955C12.2657 15.2965 11.8656 15.4 11.4615 15.4C11.0575 15.4 10.6574 15.2965 10.2841 15.0955C9.91074 14.8945 9.57154 14.5999 9.28583 14.2284C9.00011 13.857 8.77346 13.416 8.61883 12.9307C8.4642 12.4454 8.38462 11.9253 8.38462 11.4C8.38462 10.3391 8.70879 9.32172 9.28583 8.57157C9.86286 7.82143 10.6455 7.4 11.4615 7.4C12.2776 7.4 13.0602 7.82143 13.6373 8.57157C14.2143 9.32172 14.5385 10.3391 14.5385 11.4ZM16.6619 24.9168C15.0608 26.0255 13.274 26.6036 11.4599 26.6C9.6469 26.6029 7.86129 26.0248 6.26113 24.9168C6.65216 23.5328 7.36052 22.3381 8.29053 21.4942C9.22054 20.6503 10.3274 20.1978 11.4615 20.1978C12.5957 20.1978 13.7025 20.6503 14.6325 21.4942C15.5626 22.3381 16.2709 23.5328 16.6619 24.9168Z" stroke="white" stroke-width="2" stroke-linecap="round" stroke-linejoin="round"/>
</svg>
