<svg width="40" height="40" viewBox="0 0 40 40" fill="none" xmlns="http://www.w3.org/2000/svg">
<g id="Frame">
<path id="Vector" d="M12.5 12.5H11.25C10.2554 12.5 9.30161 12.8951 8.59835 13.5983C7.89509 14.3016 7.5 15.2554 7.5 16.25V28.75C7.5 29.7446 7.89509 30.6984 8.59835 31.4016C9.30161 32.1049 10.2554 32.5 11.25 32.5H23.75C24.7446 32.5 25.6984 32.1049 26.4016 31.4016C27.1049 30.6984 27.5 29.7446 27.5 28.75V16.25C27.5 15.2554 27.1049 14.3016 26.4016 13.5983C25.6984 12.8951 24.7446 12.5 23.75 12.5H22.5M22.5 7.5L17.5 2.5M17.5 2.5L12.5 7.5M17.5 2.5V21.25M27.5 17.5H28.75C29.7446 17.5 30.6984 17.8951 31.4016 18.5983C32.1049 19.3016 32.5 20.2554 32.5 21.25V33.75C32.5 34.7446 32.1049 35.6984 31.4016 36.4016C30.6984 37.1049 29.7446 37.5 28.75 37.5H16.25C15.2554 37.5 14.3016 37.1049 13.5983 36.4016C12.8951 35.6984 12.5 34.7446 12.5 33.75V32.5" stroke="#1E1E1E" stroke-width="2" stroke-linecap="round" stroke-linejoin="round"/>
</g>
</svg>
