<svg width="44" height="17" viewBox="0 0 44 17" fill="none" xmlns="http://www.w3.org/2000/svg">
<path d="M11.432 8.752V9.808H6.512V14.56H5.384V9.808H0.488V8.752H5.384V4H6.512V8.752H11.432ZM23.1928 8.056C24.9048 8.696 25.7608 9.896 25.7608 11.656C25.7608 12.968 25.2168 14.064 24.1288 14.944C23.0568 15.808 21.6568 16.24 19.9288 16.24C18.1688 16.24 16.7928 15.8 15.8008 14.92C14.8248 14.04 14.2968 12.848 14.2168 11.344H17.3128C17.5848 12.864 18.4488 13.624 19.9048 13.624C20.6888 13.624 21.3208 13.424 21.8008 13.024C22.2808 12.608 22.5208 12.096 22.5208 11.488C22.5208 10.8 22.2808 10.264 21.8008 9.88C21.3208 9.496 20.6648 9.304 19.8328 9.304H18.4408V6.976H19.7608C20.4968 6.976 21.0808 6.8 21.5128 6.448C21.9448 6.08 22.1608 5.568 22.1608 4.912C22.1608 4.288 21.9528 3.792 21.5368 3.424C21.1208 3.04 20.5768 2.848 19.9048 2.848C19.2808 2.848 18.7448 3.024 18.2968 3.376C17.8648 3.712 17.5848 4.2 17.4568 4.84H14.4328C14.4808 3.512 15.0408 2.44 16.1128 1.624C17.2008 0.791999 18.5048 0.375999 20.0247 0.375999C21.4808 0.375999 22.7208 0.767999 23.7448 1.552C24.7688 2.32 25.2808 3.368 25.2808 4.696C25.2808 6.152 24.5848 7.224 23.1928 7.912V8.056ZM32.0204 7.624C31.0284 7.624 30.1724 7.272 29.4524 6.568C28.7484 5.848 28.3964 5 28.3964 4.024C28.3964 3.032 28.7484 2.184 29.4524 1.48C30.1724 0.759999 31.0284 0.399999 32.0204 0.399999C32.9964 0.399999 33.8364 0.759999 34.5404 1.48C35.2604 2.2 35.6204 3.048 35.6204 4.024C35.6204 5 35.2604 5.848 34.5404 6.568C33.8204 7.272 32.9804 7.624 32.0204 7.624ZM42.0524 0.639999L31.1804 16H29.7164L40.6124 0.639999H42.0524ZM31.9964 6.448C32.7004 6.448 33.2844 6.224 33.7484 5.776C34.2124 5.312 34.4444 4.728 34.4444 4.024C34.4444 3.32 34.2124 2.736 33.7484 2.272C33.2844 1.808 32.7004 1.576 31.9964 1.576C31.3084 1.576 30.7324 1.808 30.2684 2.272C29.8044 2.736 29.5724 3.32 29.5724 4.024C29.5724 4.712 29.8044 5.288 30.2684 5.752C30.7324 6.216 31.3084 6.448 31.9964 6.448ZM39.8204 16.24C38.8284 16.24 37.9724 15.888 37.2524 15.184C36.5484 14.464 36.1964 13.616 36.1964 12.64C36.1964 11.648 36.5484 10.8 37.2524 10.096C37.9724 9.376 38.8284 9.016 39.8204 9.016C40.7964 9.016 41.6364 9.376 42.3404 10.096C43.0604 10.816 43.4204 11.664 43.4204 12.64C43.4204 13.616 43.0604 14.464 42.3404 15.184C41.6204 15.888 40.7804 16.24 39.8204 16.24ZM39.7964 15.064C40.5004 15.064 41.0844 14.84 41.5484 14.392C42.0124 13.928 42.2444 13.344 42.2444 12.64C42.2444 11.936 42.0124 11.352 41.5484 10.888C41.0844 10.424 40.5004 10.192 39.7964 10.192C39.1084 10.192 38.5324 10.424 38.0684 10.888C37.6044 11.352 37.3724 11.936 37.3724 12.64C37.3724 13.328 37.6044 13.904 38.0684 14.368C38.5324 14.832 39.1084 15.064 39.7964 15.064Z" fill="#2FBF7A"/>
</svg>
