<svg width="26" height="26" viewBox="0 0 26 26" fill="none" xmlns="http://www.w3.org/2000/svg">
<path d="M16.9855 9.30811L16.4822 20.3847M9.51782 20.3847L9.01455 9.30811M23.5135 5.35745C24.0109 5.42145 24.5055 5.48914 25 5.56175M23.5135 5.35745L21.96 22.4438C21.8966 23.1394 21.5252 23.7892 20.92 24.2631C20.3149 24.737 19.5206 25.0002 18.696 25H7.304C6.47941 25.0002 5.68512 24.737 5.07997 24.2631C4.47482 23.7892 4.1034 23.1394 4.04 22.4438L2.48655 5.35745M23.5135 5.35745C21.8347 5.14271 20.1473 4.97973 18.4545 4.86885M2.48655 5.35745C1.98909 5.42022 1.49455 5.48791 1 5.56052M2.48655 5.35745C4.16528 5.14271 5.8527 4.97973 7.54545 4.86885M18.4545 4.86885V3.74149C18.4545 2.28922 17.1309 1.07818 15.4145 1.03264C13.8053 0.98912 12.1947 0.98912 10.5855 1.03264C8.86909 1.07818 7.54545 2.29045 7.54545 3.74149V4.86885M18.4545 4.86885C14.8236 4.63141 11.1764 4.63141 7.54545 4.86885" stroke="white" stroke-width="1.5" stroke-linecap="round" stroke-linejoin="round"/>
</svg>
