<svg width="34" height="34" viewBox="0 0 34 34" fill="none" xmlns="http://www.w3.org/2000/svg">
<path d="M31.6666 20.8222V28.3778C31.6666 30.3227 30.2675 31.9973 28.3386 32.2533C24.6284 32.7458 20.8435 33 17 33C13.1565 33 9.3716 32.7458 5.6614 32.2533C3.73253 31.9973 2.33342 30.3227 2.33342 28.3778V20.8222M31.6666 20.8222C32.0887 20.4554 32.4265 20.0015 32.6566 19.4918C32.8868 18.9821 33.0039 18.4286 32.9999 17.8693V11.144C32.9999 9.22222 31.6346 7.56178 29.7341 7.27733C27.7205 6.97586 25.6967 6.74638 23.6666 6.58933M31.6666 20.8222C31.3217 21.1156 30.9199 21.3467 30.4701 21.4978C26.1257 22.9393 21.5774 23.6716 17 23.6667C12.2925 23.6667 7.7645 22.904 3.52986 21.4978C3.09121 21.3519 2.68494 21.1225 2.33342 20.8222M2.33342 20.8222C1.91128 20.4554 1.57354 20.0015 1.34338 19.4918C1.11323 18.9821 0.996121 18.4286 1.0001 17.8693V11.144C1.0001 9.22222 2.36542 7.56178 4.26586 7.27733C6.27953 6.97585 8.30332 6.74637 10.3334 6.58933M23.6666 6.58933V5C23.6666 3.93913 23.2452 2.92172 22.4951 2.17157C21.7449 1.42143 20.7275 1 19.6666 1H14.3333C13.2725 1 12.2551 1.42143 11.5049 2.17157C10.7548 2.92172 10.3334 3.93913 10.3334 5V6.58933M23.6666 6.58933C19.2288 6.24636 14.7712 6.24636 10.3334 6.58933M17 18.3333H17.0142V18.3476H17V18.3333Z" stroke="white" stroke-width="2" stroke-linecap="round" stroke-linejoin="round"/>
</svg>
