<svg width="40" height="40" viewBox="0 0 40 40" fill="none" xmlns="http://www.w3.org/2000/svg">
<g id="more-horizontal">
<path id="Vector" d="M19.9999 21.6666C20.9204 21.6666 21.6666 20.9205 21.6666 20C21.6666 19.0795 20.9204 18.3333 19.9999 18.3333C19.0794 18.3333 18.3333 19.0795 18.3333 20C18.3333 20.9205 19.0794 21.6666 19.9999 21.6666Z" fill="white" stroke="white" stroke-width="2" stroke-linecap="round" stroke-linejoin="round"/>
<path id="Vector_2" d="M31.6667 21.6666C32.5871 21.6666 33.3333 20.9205 33.3333 20C33.3333 19.0795 32.5871 18.3333 31.6667 18.3333C30.7462 18.3333 30 19.0795 30 20C30 20.9205 30.7462 21.6666 31.6667 21.6666Z" fill="white" stroke="white" stroke-width="2" stroke-linecap="round" stroke-linejoin="round"/>
<path id="Vector_3" d="M8.33341 21.6666C9.25389 21.6666 10.0001 20.9205 10.0001 20C10.0001 19.0795 9.25389 18.3333 8.33341 18.3333C7.41294 18.3333 6.66675 19.0795 6.66675 20C6.66675 20.9205 7.41294 21.6666 8.33341 21.6666Z" fill="white" stroke="white" stroke-width="2" stroke-linecap="round" stroke-linejoin="round"/>
</g>
</svg>
