<svg width="32" height="32" viewBox="0 0 32 32" fill="none" xmlns="http://www.w3.org/2000/svg">
<g id="Frame">
<path id="Vector" d="M20 12H25M20 16H25M20 20H25M6 26H26C26.7957 26 27.5587 25.6839 28.1213 25.1213C28.6839 24.5587 29 23.7956 29 23V9C29 8.20435 28.6839 7.44129 28.1213 6.87868C27.5587 6.31607 26.7957 6 26 6H6C5.20435 6 4.44129 6.31607 3.87868 6.87868C3.31607 7.44129 3 8.20435 3 9V23C3 23.7956 3.31607 24.5587 3.87868 25.1213C4.44129 25.6839 5.20435 26 6 26ZM14 12.5C14 12.8283 13.9353 13.1534 13.8097 13.4567C13.6841 13.76 13.4999 14.0356 13.2678 14.2678C13.0356 14.4999 12.76 14.6841 12.4567 14.8097C12.1534 14.9353 11.8283 15 11.5 15C11.1717 15 10.8466 14.9353 10.5433 14.8097C10.24 14.6841 9.96438 14.4999 9.73223 14.2678C9.50009 14.0356 9.31594 13.76 9.1903 13.4567C9.06466 13.1534 9 12.8283 9 12.5C9 11.837 9.26339 11.2011 9.73223 10.7322C10.2011 10.2634 10.837 10 11.5 10C12.163 10 12.7989 10.2634 13.2678 10.7322C13.7366 11.2011 14 11.837 14 12.5ZM15.7253 20.948C14.4244 21.6409 12.9726 22.0023 11.4987 22C10.0256 22.0018 8.5748 21.6405 7.27467 20.948C7.59238 20.083 8.16792 19.3363 8.92355 18.8089C9.67919 18.2814 10.5785 17.9986 11.5 17.9986C12.4215 17.9986 13.3208 18.2814 14.0764 18.8089C14.8321 19.3363 15.4076 20.083 15.7253 20.948Z" stroke="white" stroke-width="2" stroke-linecap="round" stroke-linejoin="round"/>
</g>
</svg>
