<svg width="86" height="22" viewBox="0 0 86 22" fill="none" xmlns="http://www.w3.org/2000/svg">
<path d="M5.232 21.08H0.72V4.904H4.944V8.168H5.184C5.568 5.768 7.008 4.664 9.84 4.664C13.536 4.664 15.576 7.04 15.576 10.952C15.576 14.888 13.584 17.24 10.032 17.24C7.176 17.24 5.832 15.896 5.472 13.88H5.232V21.08ZM5.232 11.096C5.232 12.8 6.192 13.136 8.208 13.136C10.296 13.136 11.016 12.56 11.016 10.952C11.016 9.344 10.296 8.792 8.208 8.792C6.192 8.792 5.232 9.176 5.232 10.928V11.096ZM21.2867 17H16.7747V4.904H20.9987V8.072H21.2387C21.5747 6.08 22.8227 4.664 25.2227 4.664C27.8867 4.664 28.9427 6.416 28.9427 8.84V11.24H24.4307V9.824C24.4307 8.816 24.0467 8.456 22.8707 8.456C21.6467 8.456 21.2867 8.816 21.2867 9.776V17ZM36.5957 17.24C32.3957 17.24 29.5397 14.864 29.5397 10.952C29.5397 7.016 32.3957 4.664 36.5957 4.664C40.7957 4.664 43.6517 7.016 43.6517 10.952C43.6517 14.864 40.7957 17.24 36.5957 17.24ZM36.5957 13.256C38.6357 13.256 39.1877 12.704 39.1877 10.952C39.1877 9.2 38.6357 8.624 36.5957 8.624C34.5557 8.624 34.0037 9.2 34.0037 10.952C34.0037 12.704 34.5557 13.256 36.5957 13.256ZM49.2476 21.08H44.7356V4.904H48.9596V8.168H49.1996C49.5836 5.768 51.0236 4.664 53.8556 4.664C57.5516 4.664 59.5916 7.04 59.5916 10.952C59.5916 14.888 57.5996 17.24 54.0476 17.24C51.1916 17.24 49.8476 15.896 49.4876 13.88H49.2476V21.08ZM49.2476 11.096C49.2476 12.8 50.2076 13.136 52.2236 13.136C54.3116 13.136 55.0316 12.56 55.0316 10.952C55.0316 9.344 54.3116 8.792 52.2236 8.792C50.2076 8.792 49.2476 9.176 49.2476 10.928V11.096ZM67.5343 17.24C63.4303 17.24 60.5503 15.488 60.5503 10.952C60.5503 7.016 63.4063 4.664 67.4383 4.664C71.6143 4.664 74.2783 6.752 74.2783 10.64C74.2783 11.048 74.2543 11.36 74.2063 11.792H64.7263C64.7983 13.256 65.4463 13.664 67.3663 13.664C69.1903 13.664 69.6703 13.352 69.6703 12.632V12.368H74.1823V12.656C74.1823 15.344 71.6143 17.24 67.5343 17.24ZM67.3423 8.12C65.6863 8.12 64.9903 8.48 64.7983 9.512H69.9103C69.7423 8.48 69.0223 8.12 67.3423 8.12ZM79.9976 17H75.4856V0.92H79.9976V17ZM85.9508 17H81.4388V0.92H85.9508V17Z" fill="white"/>
</svg>
