<svg width="40" height="40" viewBox="0 0 40 40" fill="none" xmlns="http://www.w3.org/2000/svg">
<g id="Frame">
<path id="Vector" d="M6.83 33.17C7.41039 33.7505 8.09946 34.2111 8.85785 34.5253C9.61624 34.8394 10.4291 35.0012 11.25 35.0012M6.83 33.17C8.0021 34.3421 9.5924 35.0012 11.25 35.0012M6.83 33.17C5.6579 31.9979 5 30.4076 5 28.75V6.875C5 5.84 5.84 5 6.875 5H15.625C16.66 5 17.5 5.84 17.5 6.875V13.6617M11.25 35.0012C12.0709 35.0012 12.8838 34.8394 13.6422 34.5253C14.4005 34.2111 15.0896 33.7505 15.67 33.17M11.25 35.0012C12.9076 35.0012 14.4979 34.3421 15.67 33.17M11.25 35.0012L33.125 35C34.16 35 35 34.16 35 33.125V24.375C35 23.34 34.16 22.5 33.125 22.5H26.3383M15.67 33.17L26.3383 22.5M15.67 33.17C16.8421 31.9979 17.5 30.4076 17.5 28.75V13.6617M26.3383 22.5L31.1367 17.7C31.87 16.97 31.87 15.7833 31.1367 15.05L24.95 8.86167C24.2167 8.13 23.03 8.13 22.3 8.86167L17.5 13.6617M11.25 28.75H11.2633V28.7633H11.25V28.75Z" stroke="#1E1E1E" stroke-width="2" stroke-linecap="round" stroke-linejoin="round"/>
</g>
</svg>
