<svg width="32" height="32" viewBox="0 0 32 32" fill="none" xmlns="http://www.w3.org/2000/svg">
<g id="Frame">
<path id="Vector" d="M5.464 26.536C5.92831 27.0004 6.47956 27.3688 7.08628 27.6202C7.69299 27.8716 8.34328 28.0009 9 28.0009M5.464 26.536C6.40168 27.4737 7.67392 28.0009 9 28.0009M5.464 26.536C4.52632 25.5983 4 24.3261 4 23V5.5C4 4.672 4.672 4 5.5 4H12.5C13.328 4 14 4.672 14 5.5V10.9293M9 28.0009C9.65672 28.0009 10.307 27.8716 10.9137 27.6202C11.5204 27.3688 12.0717 27.0004 12.536 26.536M9 28.0009C10.3261 28.0009 11.5983 27.4737 12.536 26.536M9 28.0009L26.5 28C27.328 28 28 27.328 28 26.5V19.5C28 18.672 27.328 18 26.5 18H21.0707M12.536 26.536L21.0707 18M12.536 26.536C13.4737 25.5983 14 24.3261 14 23V10.9293M21.0707 18L24.9093 14.16C25.496 13.576 25.496 12.6267 24.9093 12.04L19.96 7.08933C19.3733 6.504 18.424 6.504 17.84 7.08933L14 10.9293M9 23H9.01067V23.0107H9V23Z" stroke="#B9B2DC" stroke-width="2" stroke-linecap="round" stroke-linejoin="round"/>
</g>
</svg>
