<svg width="508" height="348" viewBox="0 0 508 348" fill="none" xmlns="http://www.w3.org/2000/svg">
<path fill-rule="evenodd" clip-rule="evenodd" d="M500.824 5.73264C498.589 1.4002 493.264 -0.299878 488.932 1.93542L21.8447 242.926C17.5123 245.161 15.8122 250.485 18.0475 254.818C20.2828 259.15 25.607 260.85 29.9394 258.615L497.027 17.6246C501.359 15.3893 503.059 10.0651 500.824 5.73264ZM483.824 93.8446C481.589 89.5121 476.264 87.8121 471.932 90.0473L4.8447 331.038C0.512261 333.273 -1.18781 338.597 1.04749 342.93C3.28278 347.262 8.60699 348.962 12.9394 346.727L480.027 105.737C484.359 103.501 486.059 98.177 483.824 93.8446ZM495.061 37.4001C499.393 35.1648 504.717 36.8649 506.953 41.1974C509.188 45.5298 507.488 50.854 503.155 53.0893L36.0683 294.08C31.7359 296.315 26.4117 294.615 24.1764 290.282C21.9411 285.95 23.6412 280.626 27.9736 278.391L495.061 37.4001Z" fill="white"/>
</svg>
