<svg width="32" height="32" viewBox="0 0 32 32" fill="none" xmlns="http://www.w3.org/2000/svg">
<path id="Vector" d="M16.0002 1.00004C20.5919 1.00004 25.0919 1.3867 29.4719 2.13004C30.3602 2.28004 31.0002 3.0567 31.0002 3.9567V5.6967C31.0002 6.18916 30.9033 6.6768 30.7148 7.13177C30.5263 7.58675 30.2501 8.00015 29.9019 8.34837L20.8486 17.4017C20.5004 17.7499 20.2241 18.1633 20.0357 18.6183C19.8472 19.0733 19.7502 19.5609 19.7502 20.0534V24.9317C19.7504 25.6283 19.5565 26.3112 19.1903 26.9038C18.824 27.4964 18.3 27.9752 17.6769 28.2867L12.2502 31V20.0534C12.2502 19.5609 12.1533 19.0733 11.9648 18.6183C11.7764 18.1633 11.5001 17.7499 11.1519 17.4017L2.09858 8.34837C1.75036 8.00015 1.47414 7.58675 1.28569 7.13177C1.09723 6.6768 1.00024 6.18916 1.00024 5.6967V3.9567C1.00024 3.0567 1.64024 2.28004 2.52858 2.13004C6.97952 1.37646 11.486 0.99846 16.0002 1.00004Z" stroke="white" stroke-width="2" stroke-linecap="round" stroke-linejoin="round"/>
</svg>
