<svg width="392" height="81" viewBox="0 0 392 81" fill="none" xmlns="http://www.w3.org/2000/svg">
<path fill-rule="evenodd" clip-rule="evenodd" d="M17.376 32.16H6.09595L0 7.96802H9.36011L11.0879 16.704L12 25.344H12.624L14.6399 15.744L17.04 7.96802H28.656L31.0559 15.744L33.072 25.344H33.696L34.656 16.704L36.3359 7.96802H45.552L39.168 32.16H27.8879L24.7681 22.464L22.9919 15.2161H22.3679L20.5439 22.464L17.376 32.16ZM60.2617 32.64C52.0537 32.64 46.2937 29.136 46.2937 20.0641C46.2937 12.192 52.0059 7.48804 60.0698 7.48804C68.4216 7.48804 73.7498 11.6641 73.7498 19.4401C73.7498 20.256 73.7017 20.88 73.6057 21.744H54.6458C54.7898 24.672 56.0857 25.488 59.9258 25.488C63.5737 25.488 64.5337 24.864 64.5337 23.4241V22.896H73.5579V23.472C73.5579 28.848 68.4216 32.64 60.2617 32.64ZM59.8777 14.4C56.5657 14.4 55.1738 15.12 54.7898 17.1841H65.0137C64.6777 15.12 63.2378 14.4 59.8777 14.4ZM85.1885 32.16H76.1643V0H85.1885V32.16ZM101.655 32.64C93.0625 32.64 87.5906 27.8881 87.5906 20.0641C87.5906 12.192 93.0625 7.48804 101.655 7.48804C109.911 7.48804 115.191 11.712 115.191 18.192V18.9601H106.215V18.576C106.215 16.0801 104.391 15.552 101.463 15.552C98.1506 15.552 96.5667 16.272 96.5667 20.0641C96.5667 23.808 98.1506 24.5281 101.463 24.5281C104.391 24.5281 106.215 24.048 106.215 21.552V21.12H115.191V21.936C115.191 28.368 109.911 32.64 101.655 32.64ZM130.994 32.64C122.594 32.64 116.882 27.8881 116.882 20.0641C116.882 12.192 122.594 7.48804 130.994 7.48804C139.394 7.48804 145.106 12.192 145.106 20.0641C145.106 27.8881 139.394 32.64 130.994 32.64ZM130.994 24.672C135.074 24.672 136.178 23.568 136.178 20.0641C136.178 16.5601 135.074 15.4081 130.994 15.4081C126.914 15.4081 125.81 16.5601 125.81 20.0641C125.81 23.568 126.914 24.672 130.994 24.672ZM156.298 32.16H147.274V7.96802H155.722V15.312H156.202C156.73 11.28 158.938 7.48804 165.034 7.48804C170.746 7.48804 173.482 10.9441 173.962 15.312H174.442C174.97 11.28 177.274 7.48804 183.562 7.48804C189.754 7.48804 192.682 11.4241 192.682 16.656V32.16H183.658V19.968C183.658 16.608 182.698 15.552 178.954 15.552C175.258 15.552 174.49 16.5601 174.49 19.6801V32.16H165.466V19.968C165.466 16.608 164.506 15.552 160.762 15.552C157.066 15.552 156.298 16.5601 156.298 19.6801V32.16ZM208.855 32.64C200.647 32.64 194.887 29.136 194.887 20.0641C194.887 12.192 200.6 7.48804 208.664 7.48804C217.015 7.48804 222.344 11.6641 222.344 19.4401C222.344 20.256 222.295 20.88 222.199 21.744H203.24C203.384 24.672 204.679 25.488 208.52 25.488C212.167 25.488 213.127 24.864 213.127 23.4241V22.896H222.152V23.472C222.152 28.848 217.015 32.64 208.855 32.64ZM208.471 14.4C205.159 14.4 203.768 15.12 203.384 17.1841H213.607C213.271 15.12 211.832 14.4 208.471 14.4ZM10.1279 80.16H1.67993V48H10.7041V62.208H11.1841C11.9041 58.176 14.592 55.488 20.304 55.488C27.408 55.488 31.3921 60.192 31.3921 68.0641C31.3921 75.8881 27.312 80.64 19.9199 80.64C14.2561 80.64 11.376 78.432 10.6079 73.6321H10.1279V80.16ZM10.7041 68.1121C10.7041 71.6161 12.624 72.384 16.656 72.384C20.832 72.384 22.272 71.28 22.272 68.0641C22.272 64.848 20.832 63.696 16.656 63.696C12.624 63.696 10.7041 64.368 10.7041 67.776V68.1121ZM41.6133 80.64C36.1414 80.64 33.0693 78.144 33.0693 74.016C33.0693 70.608 35.4214 68.16 40.8933 67.6321L50.7334 66.672V66.192C50.7334 63.744 49.6772 63.36 46.4614 63.36C43.4854 63.36 42.5735 63.936 42.5735 65.952V66.144H33.5493V66.048C33.5493 59.6161 38.9253 55.488 47.1333 55.488C55.5813 55.488 59.6614 59.6161 59.6614 66.384V80.16H51.2134V75.072H50.7334C49.8213 78.48 46.8455 80.64 41.6133 80.64ZM42.1414 73.4401C42.1414 74.208 42.9094 74.3521 44.3013 74.3521C48.6694 74.3521 50.4453 73.824 50.6853 71.6641L43.2935 72.5281C42.4773 72.624 42.1414 72.912 42.1414 73.4401ZM75.9202 80.64C67.3281 80.64 61.8562 75.8881 61.8562 68.0641C61.8562 60.192 67.3281 55.488 75.9202 55.488C84.1763 55.488 89.4563 59.712 89.4563 66.192V66.9601H80.4802V66.576C80.4802 64.0801 78.6562 63.552 75.7283 63.552C72.4163 63.552 70.8323 64.272 70.8323 68.0641C70.8323 71.808 72.4163 72.5281 75.7283 72.5281C78.6562 72.5281 80.4802 72.048 80.4802 69.552V69.12H89.4563V69.936C89.4563 76.368 84.1763 80.64 75.9202 80.64ZM100.892 80.16H91.8674V48H100.892V64.368H105.164L110.491 55.968H121.147L112.555 67.728L121.003 80.16H110.347L105.26 72.432H100.892V80.16ZM262.24 67.4835H138.24V75.4835H262.24H270.24V39.068L290.704 18.6041L311.24 39.1403V67.4835V75.4835H319.24H391.24V67.4835H319.24V35.4835H318.897L296.361 12.9473L296.491 12.8169L290.834 7.16003L262.55 35.4443L262.589 35.4835H262.24V67.4835Z" fill="#F9D75D"/>
</svg>
