<svg width="48" height="48" viewBox="0 0 48 48" fill="none" xmlns="http://www.w3.org/2000/svg">
<circle cx="24" cy="24" r="24" fill="#F9D75D"/>
<path d="M29.1501 33.0386C32.5087 32.6463 35.8087 31.8645 38.9815 30.7093C36.2945 27.7734 34.8098 23.9572 34.8157 20.0019V18.7572V18.6683C34.8157 15.8389 33.6762 13.1254 31.6478 11.1247C29.6195 9.12398 26.8685 8 24 8C21.1315 8 18.3805 9.12398 16.3522 11.1247C14.3238 13.1254 13.1843 15.8389 13.1843 18.6683V20.0019C13.1898 23.9574 11.7043 27.7737 9.01667 30.7093C12.1406 31.8473 15.434 32.6385 18.8499 33.0386M29.1501 33.0386C25.7287 33.4389 22.2713 33.4389 18.8499 33.0386M29.1501 33.0386C29.4098 33.8385 29.4744 34.6875 29.3386 35.5167C29.2028 36.3459 28.8704 37.1317 28.3684 37.8101C27.8665 38.4886 27.2092 39.0406 26.4501 39.4211C25.691 39.8017 24.8515 40 24 40C23.1485 40 22.309 39.8017 21.5499 39.4211C20.7908 39.0406 20.1335 38.4886 19.6316 37.8101C19.1296 37.1317 18.7972 36.3459 18.6614 35.5167C18.5256 34.6875 18.5902 33.8385 18.8499 33.0386M8 16.0013C8.50828 13.023 9.86353 10.2483 11.9081 8M36.0919 8C38.1365 10.2483 39.4917 13.023 40 16.0013" stroke="black" stroke-width="2" stroke-linecap="round" stroke-linejoin="round"/>
</svg>
