<svg width="28" height="28" viewBox="0 0 28 28" fill="none" xmlns="http://www.w3.org/2000/svg">
<g id="Frame">
<path id="Vector" d="M16.4745 8.9005C16.0075 8.4336 15.418 8.10833 14.774 7.96226C14.13 7.81619 13.4579 7.85527 12.8352 8.075C12.2125 8.29473 11.6646 8.68614 11.2549 9.20402C10.8452 9.72189 10.5904 10.3451 10.5198 11.0017C10.493 11.249 10.5175 11.4975 10.5525 11.7437L11.1428 15.8748C11.2941 16.9324 11.1191 18.011 10.6412 18.9665L10.5 19.25L12.2955 18.6515C12.834 18.4722 13.416 18.4722 13.9545 18.6515L14.7187 18.9058C15.0457 19.0149 15.3911 19.0585 15.735 19.034C16.0789 19.0096 16.4146 18.9177 16.723 18.7635L17.5 18.375M9.625 14H14M24.5 14C24.5 15.3789 24.2284 16.7443 23.7007 18.0182C23.1731 19.2921 22.3996 20.4496 21.4246 21.4246C20.4496 22.3996 19.2921 23.1731 18.0182 23.7007C16.7443 24.2284 15.3789 24.5 14 24.5C12.6211 24.5 11.2557 24.2284 9.98182 23.7007C8.70791 23.1731 7.55039 22.3996 6.57538 21.4246C5.60036 20.4496 4.82694 19.2921 4.29926 18.0182C3.77159 16.7443 3.5 15.3789 3.5 14C3.5 11.2152 4.60625 8.54451 6.57538 6.57538C8.54451 4.60625 11.2152 3.5 14 3.5C16.7848 3.5 19.4555 4.60625 21.4246 6.57538C23.3938 8.54451 24.5 11.2152 24.5 14Z" stroke="white" stroke-width="1.5" stroke-linecap="round" stroke-linejoin="round"/>
</g>
</svg>
