<svg width="51" height="93" viewBox="0 0 51 93" fill="none" xmlns="http://www.w3.org/2000/svg">
<g id="Key Person">
<g id="Group 129">
<path id="Union" fill-rule="evenodd" clip-rule="evenodd" d="M38.7182 44.8653C47.7384 40.3578 52.8199 30.0985 50.3983 19.8602C47.5717 7.90919 35.592 0.512456 23.641 3.33914C11.69 6.16582 4.29322 18.1455 7.1199 30.0965C9.54146 40.3347 18.6805 47.2305 28.7642 47.2196L29.3012 49.4904L26.406 50.1752L28.5045 59.0473L31.3997 58.3625L35.2723 74.7356L24.0199 77.3971L26.1184 86.2692L37.3708 83.6077L39.546 92.8044L49.5 90.45L41.3537 56.0082L43.9312 55.3985L41.8327 46.5265L39.2553 47.1361L38.7182 44.8653Z" fill="#B9B2DC"/>
<ellipse id="Ellipse 8" cx="38.469" cy="24.2374" rx="3.11308" ry="2.89071" fill="black"/>
</g>
<path id="Vector 1" d="M29.7197 12.7337C21.9141 11.4264 14.676 5.42865 14.676 5.42865C14.676 5.42865 24.0475 -0.825766 31.5756 0.0919453C40.3528 1.16193 47.141 8.87528 47.141 8.87528C47.141 8.87528 37.0695 13.9647 29.7197 12.7337Z" fill="#F9D75D"/>
<path id="Vector 2" d="M16.6121 21.2966C13.0555 28.3667 5.18597 33.5081 5.18597 33.5081C5.18597 33.5081 1.98184 22.7064 5.0842 15.7862C8.70132 7.71772 18.0768 3.51341 18.0768 3.51341C18.0768 3.51341 19.9611 14.6394 16.6121 21.2966Z" fill="#F9D75D"/>
</g>
</svg>
