<svg width="289" height="59" viewBox="0 0 289 59" fill="none" xmlns="http://www.w3.org/2000/svg">
<path d="M14.9168 45.48C22.9328 45.48 27.4448 42.216 27.4448 37.704C27.4448 33.624 25.1888 31.272 18.1328 30.504L13.3328 29.976C10.5008 29.688 10.1168 29.352 10.1168 28.68C10.1168 27.768 10.5008 27.384 13.4288 27.384C17.0768 27.384 17.5568 27.96 17.5568 29.208V29.496H26.5808V29.304C26.5808 23.352 22.1168 20.328 13.7168 20.328C4.64475 20.328 1.23675 24.024 1.23675 28.296C1.23675 32.376 3.92475 34.728 8.91675 35.256L15.9248 36.024C18.1808 36.264 18.5648 36.456 18.5648 37.224C18.5648 38.04 18.0848 38.376 14.9648 38.376C11.7008 38.376 10.8368 38.232 10.8368 36.888V36.408H1.81275V36.6C1.81275 42.168 6.37275 45.48 14.9168 45.48ZM38.6359 45V32.52C38.6359 29.4 39.4039 28.392 43.0999 28.392C46.8439 28.392 47.8039 29.448 47.8039 32.808V45H56.8279V32.52C56.8279 29.4 57.5959 28.392 61.2919 28.392C65.0359 28.392 65.9959 29.448 65.9959 32.808V45H75.0199V29.496C75.0199 24.264 72.0919 20.328 65.8999 20.328C59.6119 20.328 57.3079 24.12 56.7799 28.152H56.2999C55.8199 23.784 53.0839 20.328 47.3719 20.328C41.2759 20.328 39.0679 24.12 38.5399 28.152H38.0599V20.808H29.6119V45H38.6359ZM85.5296 45.48C90.7616 45.48 93.7376 43.32 94.6496 39.912H95.1296V45H103.578V31.224C103.578 24.456 99.4976 20.328 91.0496 20.328C82.8416 20.328 77.4656 24.456 77.4656 30.888V30.984H86.4896V30.792C86.4896 28.776 87.4016 28.2 90.3776 28.2C93.5936 28.2 94.6496 28.584 94.6496 31.032V31.512L84.8096 32.472C79.3376 33 76.9856 35.448 76.9856 38.856C76.9856 42.984 80.0576 45.48 85.5296 45.48ZM86.0576 38.28C86.0576 37.752 86.3936 37.464 87.2096 37.368L94.6016 36.504C94.3616 38.664 92.5856 39.192 88.2176 39.192C86.8256 39.192 86.0576 39.048 86.0576 38.28ZM115.277 45V30.552C115.277 28.632 115.997 27.912 118.445 27.912C120.797 27.912 121.565 28.632 121.565 30.648V33.48H130.589V28.68C130.589 23.832 128.477 20.328 123.149 20.328C118.349 20.328 115.853 23.16 115.181 27.144H114.701V20.808H106.253V45H115.277ZM150.599 45V36.888H146.279C144.215 36.888 143.639 36.408 143.639 34.488V28.2H150.599V20.808H143.639V16.632H134.615V20.808H131.062V28.2H134.615V35.784C134.615 42.072 138.215 45 144.263 45H150.599ZM161.777 45V12.84H152.753V45H161.777ZM172.483 45.48C177.715 45.48 180.691 43.32 181.603 39.912H182.083V45H190.531V31.224C190.531 24.456 186.451 20.328 178.003 20.328C169.795 20.328 164.419 24.456 164.419 30.888V30.984H173.443V30.792C173.443 28.776 174.355 28.2 177.331 28.2C180.547 28.2 181.603 28.584 181.603 31.032V31.512L171.763 32.472C166.291 33 163.939 35.448 163.939 38.856C163.939 42.984 167.011 45.48 172.483 45.48ZM173.011 38.28C173.011 37.752 173.347 37.464 174.163 37.368L181.555 36.504C181.315 38.664 179.539 39.192 175.171 39.192C173.779 39.192 173.011 39.048 173.011 38.28ZM202.23 45V32.52C202.23 29.4 203.19 28.392 207.174 28.392C211.11 28.392 212.358 29.448 212.358 32.808V45H221.382V29.496C221.382 24.264 218.31 20.328 211.782 20.328C205.302 20.328 202.662 24.12 202.134 28.152H201.654V20.808H193.206V45H202.23ZM237.537 45.48C245.697 45.48 250.833 41.688 250.833 36.312V35.736H241.809V36.264C241.809 37.704 240.849 38.328 237.201 38.328C233.361 38.328 232.065 37.512 231.921 34.584H250.881C250.977 33.72 251.025 33.096 251.025 32.28C251.025 24.504 245.697 20.328 237.345 20.328C229.281 20.328 223.569 25.032 223.569 32.904C223.569 41.976 229.329 45.48 237.537 45.48ZM237.153 27.24C240.513 27.24 241.953 27.96 242.289 30.024H232.065C232.449 27.96 233.841 27.24 237.153 27.24Z" fill="white"/>
<rect width="136" height="8" transform="matrix(-1 0 0 1 289 5)" fill="white"/>
</svg>
