<svg width="394" height="96" viewBox="0 0 394 96" fill="none" xmlns="http://www.w3.org/2000/svg">
<rect width="124" height="8" transform="matrix(-1 0 0 1 265 80)" fill="#F9D75D"/>
<path d="M273 88V48H265V88H273Z" fill="#F9D75D"/>
<path d="M322 88V48H314V88H322Z" fill="#F9D75D"/>
<path d="M270.967 53.6177L299.251 25.3334L293.594 19.6766L265.31 47.9608L270.967 53.6177Z" fill="#F9D75D"/>
<path d="M288 25.6567L316.284 53.941L321.941 48.2842L293.657 19.9999L288 25.6567Z" fill="#F9D75D"/>
<rect width="80" height="8" transform="matrix(-1 0 0 1 394 80)" fill="#F9D75D"/>
<path d="M18.136 39L21.304 29.304L23.128 22.056H23.752L25.528 29.304L28.648 39H39.928L46.312 14.808H37.096L35.416 23.544L34.456 32.184H33.832L31.816 22.584L29.416 14.808H17.8L15.4 22.584L13.384 32.184H12.76L11.848 23.544L10.12 14.808H0.76L6.856 39H18.136ZM61.0218 39.48C69.1818 39.48 74.3177 35.688 74.3177 30.312V29.736H65.2938V30.264C65.2938 31.704 64.3338 32.328 60.6858 32.328C56.8458 32.328 55.5498 31.512 55.4058 28.584H74.3658C74.4618 27.72 74.5098 27.096 74.5098 26.28C74.5098 18.504 69.1818 14.328 60.8298 14.328C52.7658 14.328 47.0538 19.032 47.0538 26.904C47.0538 35.976 52.8138 39.48 61.0218 39.48ZM60.6378 21.24C63.9978 21.24 65.4378 21.96 65.7738 24.024H55.5498C55.9338 21.96 57.3258 21.24 60.6378 21.24ZM85.9484 39V6.84H76.9244V39H85.9484ZM102.415 39.48C110.671 39.48 115.951 35.208 115.951 28.776V27.96H106.975V28.392C106.975 30.888 105.151 31.368 102.223 31.368C98.9106 31.368 97.3266 30.648 97.3266 26.904C97.3266 23.112 98.9106 22.392 102.223 22.392C105.151 22.392 106.975 22.92 106.975 25.416V25.8H115.951V25.032C115.951 18.552 110.671 14.328 102.415 14.328C93.8226 14.328 88.3506 19.032 88.3506 26.904C88.3506 34.728 93.8226 39.48 102.415 39.48ZM131.754 39.48C140.154 39.48 145.866 34.728 145.866 26.904C145.866 19.032 140.154 14.328 131.754 14.328C123.354 14.328 117.642 19.032 117.642 26.904C117.642 34.728 123.354 39.48 131.754 39.48ZM131.754 31.512C127.674 31.512 126.57 30.408 126.57 26.904C126.57 23.4 127.674 22.248 131.754 22.248C135.834 22.248 136.938 23.4 136.938 26.904C136.938 30.408 135.834 31.512 131.754 31.512ZM157.058 39V26.52C157.058 23.4 157.826 22.392 161.522 22.392C165.266 22.392 166.226 23.448 166.226 26.808V39H175.25V26.52C175.25 23.4 176.018 22.392 179.714 22.392C183.458 22.392 184.418 23.448 184.418 26.808V39H193.442V23.496C193.442 18.264 190.514 14.328 184.322 14.328C178.034 14.328 175.73 18.12 175.202 22.152H174.722C174.242 17.784 171.506 14.328 165.794 14.328C159.698 14.328 157.49 18.12 156.962 22.152H156.482V14.808H148.034V39H157.058ZM209.616 39.48C217.776 39.48 222.911 35.688 222.911 30.312V29.736H213.888V30.264C213.888 31.704 212.928 32.328 209.28 32.328C205.44 32.328 204.144 31.512 204 28.584H222.96C223.056 27.72 223.104 27.096 223.104 26.28C223.104 18.504 217.776 14.328 209.424 14.328C201.36 14.328 195.648 19.032 195.648 26.904C195.648 35.976 201.408 39.48 209.616 39.48ZM209.232 21.24C212.592 21.24 214.032 21.96 214.368 24.024H204.144C204.528 21.96 205.92 21.24 209.232 21.24ZM10.888 87V80.472H11.368C12.136 85.272 15.016 87.48 20.68 87.48C28.072 87.48 32.152 82.728 32.152 74.904C32.152 67.032 28.168 62.328 21.064 62.328C15.352 62.328 12.664 65.016 11.944 69.048H11.464V54.84H2.44V87H10.888ZM11.464 74.952V74.616C11.464 71.208 13.384 70.536 17.416 70.536C21.592 70.536 23.032 71.688 23.032 74.904C23.032 78.12 21.592 79.224 17.416 79.224C13.384 79.224 11.464 78.456 11.464 74.952ZM42.3734 87.48C47.6054 87.48 50.5814 85.32 51.4934 81.912H51.9734V87H60.4214V73.224C60.4214 66.456 56.3414 62.328 47.8934 62.328C39.6854 62.328 34.3094 66.456 34.3094 72.888V72.984H43.3334V72.792C43.3334 70.776 44.2454 70.2 47.2214 70.2C50.4374 70.2 51.4934 70.584 51.4934 73.032V73.512L41.6534 74.472C36.1814 75 33.8294 77.448 33.8294 80.856C33.8294 84.984 36.9014 87.48 42.3734 87.48ZM42.9014 80.28C42.9014 79.752 43.2374 79.464 44.0534 79.368L51.4454 78.504C51.2054 80.664 49.4294 81.192 45.0614 81.192C43.6694 81.192 42.9014 81.048 42.9014 80.28ZM76.6803 87.48C84.9363 87.48 90.2163 83.208 90.2163 76.776V75.96H81.2403V76.392C81.2403 78.888 79.4163 79.368 76.4883 79.368C73.1763 79.368 71.5923 78.648 71.5923 74.904C71.5923 71.112 73.1763 70.392 76.4883 70.392C79.4163 70.392 81.2403 70.92 81.2403 73.416V73.8H90.2163V73.032C90.2163 66.552 84.9363 62.328 76.6803 62.328C68.0883 62.328 62.6163 67.032 62.6163 74.904C62.6163 82.728 68.0883 87.48 76.6803 87.48ZM101.652 87V79.272H106.02L111.108 87H121.764L113.316 74.568L121.908 62.808H111.252L105.924 71.208H101.652V54.84H92.6275V87H101.652Z" fill="#F9D75D"/>
</svg>
