<svg width="40" height="40" viewBox="0 0 40 40" fill="none" xmlns="http://www.w3.org/2000/svg">
<g id="more-horizontal">
<path id="Vector" d="M19.9999 21.6668C20.9204 21.6668 21.6666 20.9206 21.6666 20.0002C21.6666 19.0797 20.9204 18.3335 19.9999 18.3335C19.0794 18.3335 18.3333 19.0797 18.3333 20.0002C18.3333 20.9206 19.0794 21.6668 19.9999 21.6668Z" fill="black" stroke="black" stroke-width="2" stroke-linecap="round" stroke-linejoin="round"/>
<path id="Vector_2" d="M31.6667 21.6668C32.5871 21.6668 33.3333 20.9206 33.3333 20.0002C33.3333 19.0797 32.5871 18.3335 31.6667 18.3335C30.7462 18.3335 30 19.0797 30 20.0002C30 20.9206 30.7462 21.6668 31.6667 21.6668Z" fill="black" stroke="black" stroke-width="2" stroke-linecap="round" stroke-linejoin="round"/>
<path id="Vector_3" d="M8.33341 21.6668C9.25389 21.6668 10.0001 20.9206 10.0001 20.0002C10.0001 19.0797 9.25389 18.3335 8.33341 18.3335C7.41294 18.3335 6.66675 19.0797 6.66675 20.0002C6.66675 20.9206 7.41294 21.6668 8.33341 21.6668Z" fill="black" stroke="black" stroke-width="2" stroke-linecap="round" stroke-linejoin="round"/>
</g>
</svg>
